<svg width="14" height="15" viewBox="0 0 14 15" fill="none" xmlns="http://www.w3.org/2000/svg">
<path d="M5.005 5.22H3.665V5.205H2.82C2.58197 5.20545 2.35287 5.11442 2.18006 4.95073C2.00724 4.78704 1.90394 4.5632 1.8915 4.3255C1.69064 4.27852 1.51116 4.16597 1.38141 4.00561C1.25165 3.84525 1.17903 3.64624 1.175 3.44C0.980457 3.38453 0.809306 3.26714 0.687496 3.10563C0.565686 2.94412 0.49986 2.74729 0.5 2.545H5.005C5.745 2.545 6.345 3.145 6.345 3.885C6.345 4.625 5.745 5.22 5.005 5.22Z" fill="#E6E6E6"/>
<path d="M3.746 2.545H3.738V3.303H1.587C1.055 3.303 0.614502 2.9775 0.521002 2.545H0.502502C0.502502 2.9705 0.786002 3.328 1.175 3.439C1.17881 3.64541 1.25134 3.84466 1.38111 4.00522C1.51088 4.16578 1.69048 4.27848 1.8915 4.3255C1.90394 4.5632 2.00725 4.78704 2.18006 4.95073C2.35287 5.11442 2.58197 5.20545 2.82 5.205H4.665V5.033H2.82C2.61303 5.03311 2.41194 4.96418 2.24856 4.83712C2.08518 4.71006 1.96886 4.53213 1.918 4.3315C1.97834 4.3435 2.04067 4.34966 2.105 4.35H3.95V4.178H2.105C1.89228 4.17862 1.68581 4.10615 1.52015 3.97271C1.35449 3.83927 1.2397 3.65297 1.195 3.445C1.27067 3.465 1.34967 3.475 1.432 3.475H3.7455L3.746 2.545Z" fill="#D3D3D3"/>
<path d="M13.62 6.20001L7.23 12.59C6.89 12.93 6.335 12.93 5.995 12.59L5 11.595C4.83665 11.431 4.74493 11.209 4.74493 10.9775C4.74493 10.746 4.83665 10.524 5 10.36L11.395 3.97501C11.559 3.81166 11.781 3.71994 12.0125 3.71994C12.244 3.71994 12.466 3.81166 12.63 3.97501L13.625 4.97001C13.96 5.30501 13.96 5.86001 13.62 6.20001Z" fill="#008463"/>
<path d="M12.65 5.23L6.26003 11.62C5.92003 11.96 5.36503 11.96 5.02503 11.62L1.28003 7.875C1.11668 7.71101 1.02496 7.48897 1.02496 7.2575C1.02496 7.02604 1.11668 6.804 1.28003 6.64L7.67503 0.255004C7.83902 0.0916542 8.06106 -6.10352e-05 8.29253 -6.10352e-05C8.524 -6.10352e-05 8.74603 0.0916542 8.91003 0.255004L12.65 4C12.99 4.34 12.99 4.89 12.65 5.23Z" fill="#00F397"/>
<path d="M7.90448 1.1445C8.01588 1.03427 8.16627 0.972447 8.32298 0.972447C8.4797 0.972447 8.63009 1.03427 8.74148 1.1445V1.1455L11.7105 4.1145C11.8206 4.22607 11.8819 4.37678 11.881 4.53354C11.88 4.69029 11.8169 4.84026 11.7055 4.9505L5.99548 10.6605C5.88411 10.7706 5.73383 10.8323 5.57723 10.8323C5.42064 10.8323 5.27036 10.7706 5.15898 10.6605L5.15798 10.6595L2.18948 7.6905C2.07926 7.5791 2.01743 7.42872 2.01743 7.272C2.01743 7.11529 2.07926 6.9649 2.18948 6.8535H2.19048L7.90448 1.1445ZM8.99848 0.884501C8.81832 0.706379 8.57513 0.606563 8.32178 0.606751C8.06843 0.606938 7.82539 0.707112 7.64548 0.885501L1.93048 6.5955L1.92948 6.5965C1.75136 6.77667 1.65155 7.01986 1.65173 7.27321C1.65192 7.52656 1.7521 7.7696 1.93048 7.9495L4.90048 10.9195L4.90148 10.9205C5.08165 11.0986 5.32484 11.1984 5.57819 11.1983C5.83154 11.1981 6.07458 11.0979 6.25448 10.9195L11.9645 5.2095C12.0538 5.12095 12.1247 5.01568 12.1733 4.89969C12.2219 4.78371 12.2471 4.65928 12.2476 4.53354C12.248 4.40779 12.2237 4.28319 12.176 4.16684C12.1283 4.0505 12.0581 3.94471 11.9695 3.8555L8.99948 0.885501L8.99848 0.884501ZM10.065 4.545C10.065 4.9972 9.88535 5.43087 9.5656 5.75062C9.24585 6.07037 8.81218 6.25 8.35998 6.25C7.90779 6.25 7.47412 6.07037 7.15437 5.75062C6.83462 5.43087 6.65498 4.9972 6.65498 4.545C6.65498 4.09281 6.83462 3.65913 7.15437 3.33938C7.47412 3.01963 7.90779 2.84 8.35998 2.84C8.81218 2.84 9.24585 3.01963 9.5656 3.33938C9.88535 3.65913 10.065 4.09281 10.065 4.545Z" fill="#008463"/>
<path d="M5.32798 2.60001L3.76898 4.16001L9.71198 10.103L11.271 8.54401L5.32798 2.60001Z" fill="#FFF478"/>
<path d="M10.305 7.58101L8.745 9.14001L9.71399 10.109L11.273 8.54951L10.305 7.58101Z" fill="#FFB02E"/>
<path d="M3.82498 6.3235C3.79003 6.2877 3.7423 6.26724 3.69228 6.26663C3.64225 6.26602 3.59403 6.28531 3.55823 6.32025C3.52242 6.35519 3.50197 6.40293 3.50136 6.45295C3.50075 6.50298 3.52003 6.5512 3.55498 6.587L3.81348 6.852C3.59748 7.137 3.58048 7.417 3.64098 7.641C3.67861 7.77732 3.74473 7.90411 3.83498 8.013C3.8553 8.03743 3.8779 8.05986 3.90248 8.08C3.92148 8.096 3.94798 8.11533 3.98198 8.138C4.04848 8.1815 4.14698 8.233 4.26848 8.263C4.52498 8.3255 4.85498 8.282 5.18348 7.9535C5.30348 7.8335 5.41248 7.78 5.50348 7.7585C5.58794 7.73915 5.67599 7.74208 5.75898 7.767C5.83748 7.7895 5.90398 7.8265 5.95198 7.859C5.98798 7.8835 6.01948 7.914 6.04048 7.952C6.06348 7.994 6.08998 8.0535 6.10348 8.124C6.12848 8.255 6.11548 8.4475 5.89648 8.6665C5.67798 8.885 5.48498 8.897 5.35248 8.8715C5.27305 8.85545 5.19771 8.82347 5.13098 8.7775L5.12098 8.77L5.11948 8.769C5.08076 8.73724 5.031 8.72216 4.98117 8.72709C4.93133 8.73201 4.88549 8.75653 4.85373 8.79525C4.82197 8.83397 4.80689 8.88373 4.81181 8.93356C4.81674 8.9834 4.84126 9.02924 4.87998 9.061L4.88098 9.0615L4.88348 9.0635L4.89098 9.0695L4.91398 9.0865C4.93398 9.1005 4.96098 9.11717 4.99498 9.1365C5.06248 9.174 5.15998 9.218 5.27998 9.2415C5.49248 9.283 5.75698 9.2565 6.02298 9.0565L6.31598 9.3525C6.33338 9.37013 6.35408 9.38416 6.3769 9.39379C6.39972 9.40342 6.42422 9.40846 6.44899 9.40862C6.47376 9.40879 6.49832 9.40407 6.52127 9.39474C6.54421 9.38541 6.5651 9.37165 6.58273 9.35425C6.60036 9.33685 6.61439 9.31615 6.62402 9.29333C6.63365 9.2705 6.63869 9.24601 6.63885 9.22124C6.63901 9.19647 6.63429 9.17191 6.62496 9.14896C6.61563 9.12602 6.60188 9.10513 6.58448 9.0875L6.28948 8.789C6.48648 8.5255 6.51448 8.264 6.47448 8.0535C6.45457 7.95414 6.41967 7.85838 6.37098 7.7695C6.32109 7.67931 6.24984 7.60274 6.16348 7.5465C6.07154 7.48436 5.97074 7.43648 5.86448 7.4045C5.71901 7.36127 5.56479 7.35662 5.41698 7.391C5.24898 7.431 5.07948 7.5235 4.91698 7.6865C4.67998 7.923 4.48498 7.927 4.35798 7.8965C4.29729 7.88138 4.23963 7.85601 4.18748 7.8215C4.14815 7.79551 4.11447 7.76183 4.08848 7.7225C4.05102 7.66752 4.02297 7.60669 4.00548 7.5425C3.96948 7.4095 3.96998 7.212 4.20348 6.9785C4.43698 6.745 4.63698 6.7425 4.77448 6.7785C4.86433 6.80296 4.94789 6.84644 5.01948 6.906L5.02098 6.9075C5.05791 6.93861 5.10534 6.9544 5.15355 6.95164C5.20175 6.94888 5.24707 6.92778 5.28021 6.89266C5.31334 6.85754 5.33178 6.81107 5.33174 6.76278C5.3317 6.7145 5.31318 6.66806 5.27998 6.633H5.27948L5.27848 6.632L5.27598 6.6295L5.26898 6.623L5.24548 6.603C5.13506 6.51369 5.00688 6.44892 4.86948 6.413C4.64548 6.355 4.36448 6.372 4.08098 6.5855L3.82498 6.3235Z" fill="white"/>
<path d="M9.03998 10.87V9.53C9.03998 8.79 9.63498 8.19 10.375 8.19C11.115 8.19 11.715 8.79 11.715 9.53V14.035C11.2885 14.035 10.93 13.75 10.82 13.36C10.6137 13.356 10.4147 13.2833 10.2544 13.1536C10.094 13.0238 9.98145 12.8444 9.93448 12.6435C9.69677 12.6311 9.47294 12.5278 9.30924 12.3549C9.14555 12.1821 9.05452 11.953 9.05498 11.715V10.87H9.03998Z" fill="#E6E6E6"/>
<path d="M9.22699 11.715C9.22699 12.151 9.52449 12.5155 9.92849 12.617C9.91647 12.5554 9.91028 12.4928 9.90999 12.43V10.585H10.082V12.43C10.082 12.8775 10.395 13.2495 10.815 13.3395C10.795 13.2638 10.785 13.1848 10.785 13.1025V10.789H11.715V10.797H10.957V12.948C10.957 13.48 11.2825 13.9205 11.715 14.014V14.0325C11.5132 14.0326 11.3168 13.967 11.1556 13.8457C10.9943 13.7244 10.8769 13.5539 10.821 13.36C10.6146 13.3562 10.4153 13.2837 10.2548 13.1539C10.0942 13.0241 9.98151 12.8445 9.93449 12.6435C9.69679 12.6311 9.47295 12.5278 9.30926 12.355C9.14557 12.1821 9.05454 11.953 9.05499 11.715V9.87001H9.22699V11.715Z" fill="#D3D3D3"/>
</svg>
