<svg width="24" height="24" viewBox="0 0 24 24" fill="none" xmlns="http://www.w3.org/2000/svg">
<g clip-path="url(#clip0_1_5958)">
<path fill-rule="evenodd" clip-rule="evenodd" d="M1.3185 16.3185L1.5915 16.5915L2.9085 17.9085C3.1175 17.6996 3.3656 17.5339 3.63863 17.4209C3.91166 17.3079 4.20428 17.2497 4.49978 17.2498C4.79528 17.2499 5.08787 17.3082 5.36085 17.4213C5.63383 17.5344 5.88185 17.7003 6.09075 17.9093C6.29965 18.1182 6.46534 18.3663 6.57836 18.6394C6.69138 18.9124 6.74951 19.205 6.74944 19.5005C6.74937 19.796 6.6911 20.0886 6.57795 20.3616C6.46481 20.6346 6.299 20.8826 6.09 21.0915L7.41 22.4085L7.6815 22.6815L9 24L10.59 22.41L22.41 10.59L24 9L22.6815 7.6815L22.4085 7.4085L21.0915 6.0915C20.8826 6.3005 20.6346 6.46631 20.3616 6.57945C20.0886 6.6926 19.796 6.75087 19.5005 6.75094C18.9037 6.75108 18.3313 6.51414 17.9093 6.09225C17.7003 5.88335 17.5344 5.63533 17.4213 5.36235C17.3082 5.08937 17.2499 4.79678 17.2498 4.50128C17.2497 3.90449 17.4866 3.33209 17.9085 2.91L16.5915 1.59L16.3185 1.3185L15 0L13.41 1.59L1.59 13.41L0 15L1.3185 16.3185ZM4.5 15C4.097 15.002 3.7085 15.053 3.3345 15.153L3.1815 15L9.7965 8.3865L15.6135 14.205L9 20.8185L8.847 20.6655C9.0258 19.9987 9.04879 19.2997 8.91418 18.6226C8.77957 17.9455 8.49098 17.3084 8.07073 16.7607C7.65048 16.213 7.10985 15.7693 6.49067 15.464C5.87149 15.1587 5.19036 14.9999 4.5 15ZM17.205 12.6135L20.8185 9L20.6655 8.847C19.9023 9.05179 19.0986 9.05201 18.3353 8.84763C17.572 8.64325 16.876 8.24148 16.3173 7.68273C15.7585 7.12399 15.3567 6.42796 15.1524 5.66466C14.948 4.90135 14.9482 4.09769 15.153 3.3345L15 3.1815L11.3865 6.7965L17.205 12.6135Z" fill="black"/>
</g>
<defs>
<clipPath id="clip0_1_5958">
<rect width="24" height="24" fill="white"/>
</clipPath>
</defs>
</svg>
